<?xml version="1.0" encoding="utf-8"?>
<!-- Generator: Adobe Illustrator 27.0.0, SVG Export Plug-In . SVG Version: 6.00 Build 0)  -->
<svg version="1.1" xmlns="http://www.w3.org/2000/svg" xmlns:xlink="http://www.w3.org/1999/xlink" x="0px" y="0px"
	 viewBox="0 0 500 500" style="enable-background:new 0 0 500 500;" xml:space="preserve">
<style type="text/css">
	.st0{fill:none;stroke:#FFFFFF;stroke-width:14;stroke-miterlimit:10;}
	.st1{fill:#3FE093;}
	.st2{fill:#6946C1;}
	.st3{fill:#B52C46;}
</style>
<g id="레이어_1_사본">
	<path class="st0" d="M364.86,147.05l-39.03-23.45c-1.95-1.17-3.14-3.27-3.14-5.55V85.47v-63.5c0-3.57-2.9-6.47-6.47-6.47h-28.38
		h-75.68h-28.38c-3.57,0-6.47,2.9-6.47,6.47v96.08c0,2.28-1.19,4.38-3.14,5.55l-39.03,23.45c-1.95,1.17-3.14,3.27-3.14,5.54v16.37
		c0,2.02,0.95,3.92,2.55,5.15L158,191.97l16.76,12.77c1.61,1.22,2.55,3.13,2.55,5.15v176.82v91.32c0,3.57,2.9,6.47,6.47,6.47h28.38
		h75.68h28.38c3.57,0,6.47-2.9,6.47-6.47V292.69v-82.8c0-2.02,0.94-3.93,2.55-5.15l40.21-30.63c1.6-1.23,2.55-3.13,2.55-5.15v-16.37
		C368,150.32,366.81,148.22,364.86,147.05z"/>
</g>
<g id="레이어_1">
	<g>
		<g id="XMLID_00000005952367084678033790000011407010769898043537_">
			<g>
				<path class="st1" d="M368,152.59v16.37c0,2.02-0.95,3.92-2.55,5.15l-40.21,30.63c-1.61,1.22-2.55,3.13-2.55,5.15v82.8
					l-145.38,94.02V209.89c0-2.02-0.94-3.93-2.55-5.15L158,191.97l164.69-106.5v32.58c0,2.28,1.19,4.38,3.14,5.55l39.03,23.45
					C366.81,148.22,368,150.32,368,152.59z"/>
				<path class="st2" d="M322.69,292.69v185.34c0,3.57-2.9,6.47-6.47,6.47h-28.38h-75.68h-28.38c-3.57,0-6.47-2.9-6.47-6.47v-91.32
					L322.69,292.69z"/>
				<path class="st3" d="M322.69,21.97v63.5L158,191.97l-23.45-17.86c-1.6-1.23-2.55-3.13-2.55-5.15v-16.37
					c0-2.27,1.19-4.37,3.14-5.54l39.03-23.45c1.95-1.17,3.14-3.27,3.14-5.55V21.97c0-3.57,2.9-6.47,6.47-6.47h28.38h75.68h28.38
					C319.79,15.5,322.69,18.4,322.69,21.97z"/>
			</g>
			<g>
			</g>
		</g>
	</g>
</g>
</svg>
